#Comment line ignore any data following # character 
#Hierarchical Translation and Rotation (.htr) file 
[Header]	
#Header keywords are followed by a single value 
FileType HTR		#Single word string
DataType HTRS		#Translation followed by rotation and scale data
FileVersion 1		#integer
NumSegments 84		#integer
NumFrames 2		#integer
DataFrameRate 30		#integer, data frame rate in this file
EulerRotationOrder ZYX
CalibrationUnits mm
RotationUnits Degrees
GlobalAxisofGravity Y
BoneLengthAxis Y
ScaleFactor 1.00
[SegmentNames&Hierarchy]
#CHILD	PARENT
MASTER GLOBAL
root MASTER
chest root
L_mid_tent01 root
R_mid_tent01 root
spine01 root
Bip01_Neck chest
L_humerus chest
R_humerus chest
weapon_bone chest
Bip01_Head Bip01_Neck
eye_left_bone Bip01_Head
eye_right_bone Bip01_Head
L_forearm L_humerus
L_front_hand L_forearm
L_weapon_bone L_forearm
L_front_hand01_01 L_front_hand
L_front_hand02_01 L_front_hand
L_front_hand03_01 L_front_hand
L_front_hand01_02 L_front_hand01_01
L_front_hand02_02 L_front_hand02_01
L_front_hand03_02 L_front_hand03_01
R_forearm R_humerus
R_front_hand R_forearm
R_weapon_bone R_forearm
R_front_hand01_01 R_front_hand
R_front_hand02_01 R_front_hand
R_front_hand03_01 R_front_hand
R_front_hand01_02 R_front_hand01_01
R_front_hand02_02 R_front_hand02_01
R_front_hand03_02 R_front_hand03_01
null_rope01_connect L_mid_tent01
Rope1_Seg01 null_rope01_connect
Rope1_Seg02 Rope1_Seg01
Rope1_Seg03 Rope1_Seg02
Rope1_Seg04 Rope1_Seg03
Rope1_Seg05 Rope1_Seg04
Rope1_Seg06 Rope1_Seg05
Rope1_Seg07 Rope1_Seg06
Rope1_Seg09 Rope1_Seg07
L_mid_hand01 Rope1_Seg09
L_mid_hand02 Rope1_Seg09
L_mid_hand03 Rope1_Seg09
null_rope02_connect R_mid_tent01
Rope2_Seg01 null_rope02_connect
Rope2_Seg02 Rope2_Seg01
Rope2_Seg03 Rope2_Seg02
Rope2_Seg04 Rope2_Seg03
Rope2_Seg05 Rope2_Seg04
Rope2_Seg06 Rope2_Seg05
Rope2_Seg07 Rope2_Seg06
Rope2_Seg09 Rope2_Seg07
R_mid_hand01 Rope2_Seg09
R_mid_hand02 Rope2_Seg09
R_mid_hand03 Rope2_Seg09
spine02 spine01
spine03 spine02
pelvis spine03
null_rope03_connect pelvis
null_rope04_connect pelvis
Rope3_Seg01 null_rope03_connect
Rope3_Seg02 Rope3_Seg01
Rope3_Seg03 Rope3_Seg02
Rope3_Seg04 Rope3_Seg03
Rope3_Seg05 Rope3_Seg04
Rope3_Seg06 Rope3_Seg05
Rope3_Seg07 Rope3_Seg06
Rope3_Seg08 Rope3_Seg07
Rope3_Seg09 Rope3_Seg08
R_rear_hand01 Rope3_Seg09
R_rear_hand02 Rope3_Seg09
R_rear_hand03 Rope3_Seg09
Rope4_Seg01 null_rope04_connect
Rope4_Seg02 Rope4_Seg01
Rope4_Seg03 Rope4_Seg02
Rope4_Seg04 Rope4_Seg03
Rope4_Seg05 Rope4_Seg04
Rope4_Seg06 Rope4_Seg05
Rope4_Seg07 Rope4_Seg06
Rope4_Seg08 Rope4_Seg07
Rope4_Seg09 Rope4_Seg08
L_rear_hand01 Rope4_Seg09
L_rear_hand02 Rope4_Seg09
L_rear_hand03 Rope4_Seg09
[BasePosition]
#SegmentName Tx, Ty, Tz, Rx, Ry, Rz, BoneLength
MASTER 0.000000 0.000000 0.000000 -90.000000 0.000000 0.000000 10.000000 
root 0.000000 0.000000 0.000000 0.000000 0.000000 0.000000 10.000000 
chest 0.000000 0.000000 0.000000 0.000000 0.000000 0.000000 10.000000 
L_mid_tent01 0.000000 0.000000 0.000000 0.000000 0.000000 0.000000 10.000000 
R_mid_tent01 0.000000 0.000000 0.000000 0.000000 0.000000 0.000000 10.000000 
spine01 0.000000 0.000000 0.000000 0.000000 0.000000 0.000000 10.000000 
Bip01_Neck 0.000000 0.000000 0.000000 0.000000 0.000000 0.000000 10.000000 
L_humerus 0.000000 0.000000 0.000000 0.000000 0.000000 0.000000 10.000000 
R_humerus 0.000000 0.000000 0.000000 0.000000 0.000000 0.000000 10.000000 
weapon_bone 0.000000 0.000000 0.000000 0.000000 0.000000 0.000000 10.000000 
Bip01_Head 0.000000 0.000000 0.000000 0.000000 0.000000 0.000000 10.000000 
eye_left_bone 0.000000 0.000000 0.000000 0.000000 0.000000 0.000000 10.000000 
eye_right_bone 0.000000 0.000000 0.000000 0.000000 0.000000 0.000000 10.000000 
L_forearm 0.000000 0.000000 0.000000 0.000000 0.000000 0.000000 10.000000 
L_front_hand 0.000000 0.000000 0.000000 0.000000 0.000000 0.000000 10.000000 
L_weapon_bone 0.000000 0.000000 0.000000 0.000000 0.000000 0.000000 10.000000 
L_front_hand01_01 0.000000 0.000000 0.000000 0.000000 0.000000 0.000000 10.000000 
L_front_hand02_01 0.000000 0.000000 0.000000 0.000000 0.000000 0.000000 10.000000 
L_front_hand03_01 0.000000 0.000000 0.000000 0.000000 0.000000 0.000000 10.000000 
L_front_hand01_02 0.000000 0.000000 0.000000 0.000000 0.000000 0.000000 10.000000 
L_front_hand02_02 0.000000 0.000000 0.000000 0.000000 0.000000 0.000000 10.000000 
L_front_hand03_02 0.000000 0.000000 0.000000 0.000000 0.000000 0.000000 10.000000 
R_forearm 0.000000 0.000000 0.000000 0.000000 0.000000 0.000000 10.000000 
R_front_hand 0.000000 0.000000 0.000000 0.000000 0.000000 0.000000 10.000000 
R_weapon_bone 0.000000 0.000000 0.000000 0.000000 0.000000 0.000000 10.000000 
R_front_hand01_01 0.000000 0.000000 0.000000 0.000000 0.000000 0.000000 10.000000 
R_front_hand02_01 0.000000 0.000000 0.000000 0.000000 0.000000 0.000000 10.000000 
R_front_hand03_01 0.000000 0.000000 0.000000 0.000000 0.000000 0.000000 10.000000 
R_front_hand01_02 0.000000 0.000000 0.000000 0.000000 0.000000 0.000000 10.000000 
R_front_hand02_02 0.000000 0.000000 0.000000 0.000000 0.000000 0.000000 10.000000 
R_front_hand03_02 0.000000 0.000000 0.000000 0.000000 0.000000 0.000000 10.000000 
null_rope01_connect 0.000000 0.000000 0.000000 0.000000 0.000000 0.000000 10.000000 
Rope1_Seg01 0.000000 0.000000 0.000000 0.000000 0.000000 0.000000 10.000000 
Rope1_Seg02 0.000000 0.000000 0.000000 0.000000 0.000000 0.000000 10.000000 
Rope1_Seg03 0.000000 0.000000 0.000000 0.000000 0.000000 0.000000 10.000000 
Rope1_Seg04 0.000000 0.000000 0.000000 0.000000 0.000000 0.000000 10.000000 
Rope1_Seg05 0.000000 0.000000 0.000000 0.000000 0.000000 0.000000 10.000000 
Rope1_Seg06 0.000000 0.000000 0.000000 0.000000 0.000000 0.000000 10.000000 
Rope1_Seg07 0.000000 0.000000 0.000000 0.000000 0.000000 0.000000 10.000000 
Rope1_Seg09 0.000000 0.000000 0.000000 0.000000 0.000000 0.000000 10.000000 
L_mid_hand01 0.000000 0.000000 0.000000 0.000000 0.000000 0.000000 10.000000 
L_mid_hand02 0.000000 0.000000 0.000000 0.000000 0.000000 0.000000 10.000000 
L_mid_hand03 0.000000 0.000000 0.000000 0.000000 0.000000 0.000000 10.000000 
null_rope02_connect 0.000000 0.000000 0.000000 0.000000 0.000000 0.000000 10.000000 
Rope2_Seg01 0.000000 0.000000 0.000000 0.000000 0.000000 0.000000 10.000000 
Rope2_Seg02 0.000000 0.000000 0.000000 0.000000 0.000000 0.000000 10.000000 
Rope2_Seg03 0.000000 0.000000 0.000000 0.000000 0.000000 0.000000 10.000000 
Rope2_Seg04 0.000000 0.000000 0.000000 0.000000 0.000000 0.000000 10.000000 
Rope2_Seg05 0.000000 0.000000 0.000000 0.000000 0.000000 0.000000 10.000000 
Rope2_Seg06 0.000000 0.000000 0.000000 0.000000 0.000000 0.000000 10.000000 
Rope2_Seg07 0.000000 0.000000 0.000000 0.000000 0.000000 0.000000 10.000000 
Rope2_Seg09 0.000000 0.000000 0.000000 0.000000 0.000000 0.000000 10.000000 
R_mid_hand01 0.000000 0.000000 0.000000 0.000000 0.000000 0.000000 10.000000 
R_mid_hand02 0.000000 0.000000 0.000000 0.000000 0.000000 0.000000 10.000000 
R_mid_hand03 0.000000 0.000000 0.000000 0.000000 0.000000 0.000000 10.000000 
spine02 0.000000 0.000000 0.000000 0.000000 0.000000 0.000000 10.000000 
spine03 0.000000 0.000000 0.000000 0.000000 0.000000 0.000000 10.000000 
pelvis 0.000000 0.000000 0.000000 0.000000 0.000000 0.000000 10.000000 
null_rope03_connect 0.000000 0.000000 0.000000 0.000000 0.000000 0.000000 10.000000 
null_rope04_connect 0.000000 0.000000 0.000000 0.000000 0.000000 0.000000 10.000000 
Rope3_Seg01 0.000000 0.000000 0.000000 0.000000 0.000000 0.000000 10.000000 
Rope3_Seg02 0.000000 0.000000 0.000000 0.000000 0.000000 0.000000 10.000000 
Rope3_Seg03 0.000000 0.000000 0.000000 0.000000 0.000000 0.000000 10.000000 
Rope3_Seg04 0.000000 0.000000 0.000000 0.000000 0.000000 0.000000 10.000000 
Rope3_Seg05 0.000000 0.000000 0.000000 0.000000 0.000000 0.000000 10.000000 
Rope3_Seg06 0.000000 0.000000 0.000000 0.000000 0.000000 0.000000 10.000000 
Rope3_Seg07 0.000000 0.000000 0.000000 0.000000 0.000000 0.000000 10.000000 
Rope3_Seg08 0.000000 0.000000 0.000000 0.000000 0.000000 0.000000 10.000000 
Rope3_Seg09 0.000000 0.000000 0.000000 0.000000 0.000000 0.000000 10.000000 
R_rear_hand01 0.000000 0.000000 0.000000 0.000000 0.000000 0.000000 10.000000 
R_rear_hand02 0.000000 0.000000 0.000000 0.000000 0.000000 0.000000 10.000000 
R_rear_hand03 0.000000 0.000000 0.000000 0.000000 0.000000 0.000000 10.000000 
Rope4_Seg01 0.000000 0.000000 0.000000 0.000000 0.000000 0.000000 10.000000 
Rope4_Seg02 0.000000 0.000000 0.000000 0.000000 0.000000 0.000000 10.000000 
Rope4_Seg03 0.000000 0.000000 0.000000 0.000000 0.000000 0.000000 10.000000 
Rope4_Seg04 0.000000 0.000000 0.000000 0.000000 0.000000 0.000000 10.000000 
Rope4_Seg05 0.000000 0.000000 0.000000 0.000000 0.000000 0.000000 10.000000 
Rope4_Seg06 0.000000 0.000000 0.000000 0.000000 0.000000 0.000000 10.000000 
Rope4_Seg07 0.000000 0.000000 0.000000 0.000000 0.000000 0.000000 10.000000 
Rope4_Seg08 0.000000 0.000000 0.000000 0.000000 0.000000 0.000000 10.000000 
Rope4_Seg09 0.000000 0.000000 0.000000 0.000000 0.000000 0.000000 10.000000 
L_rear_hand01 0.000000 0.000000 0.000000 0.000000 0.000000 0.000000 10.000000 
L_rear_hand02 0.000000 0.000000 0.000000 0.000000 0.000000 0.000000 10.000000 
L_rear_hand03 0.000000 0.000000 0.000000 0.000000 0.000000 0.000000 10.000000 
#Beginning of Data. Separated by tabs
#Fr	Tx	Ty	Tz	Rx	Ry	Rz	SF
[MASTER]
1 0.000010 0.000705 0.000000 0.001660 0.001660 0.001660 0.000706
2 -0.000017 184.938354 0.000000 0.001660 0.001660 0.001660 184.938354
[root]
1 21.403315 -62.822075 714.978760 -95.229408 9.902236 -91.962517 718.052490
2 21.836941 -57.050858 655.221436 -94.093307 10.105174 -89.786087 658.062927
[chest]
1 -84.512650 -34.090519 0.000000 4.206928 10.508230 165.002167 91.129311
2 -84.512650 -34.090519 0.000000 4.692736 9.334130 164.663788 91.129311
[L_mid_tent01]
1 27.299480 22.177504 -249.917984 3.862617 36.229202 81.347588 252.380859
2 27.299473 22.177557 -249.918015 0.281065 36.393169 74.520882 252.380890
[R_mid_tent01]
1 23.228794 24.509907 226.238495 160.432098 -47.061279 87.899773 228.744751
2 23.228794 24.509907 226.238495 -178.213730 -57.684814 83.244125 228.744751
[spine01]
1 -0.361383 -0.195265 0.000000 0.785009 0.347345 17.325937 0.410763
2 -0.361383 -0.195265 0.000000 0.768444 0.337792 17.457226 0.410763
[Bip01_Neck]
1 165.484543 71.581718 0.000119 175.896118 1.177290 24.871181 180.302734
2 165.484543 71.581718 0.000119 175.896118 1.177290 24.871183 180.302734
[L_humerus]
1 -13.983130 -135.272980 -120.471481 -2.796713 69.582893 86.976334 181.680161
2 -13.983130 -135.272980 -120.471481 -2.744028 68.801094 87.016426 181.680161
[R_humerus]
1 -13.983309 -135.273102 125.287651 -24.540707 -60.361210 101.503891 184.909012
2 -13.983309 -135.273102 125.287651 -27.982073 -58.433643 106.517082 184.909012
[weapon_bone]
1 235.964890 -300.705902 0.000000 0.000000 -89.951546 -128.212341 382.234833
2 235.964890 -300.705902 0.000000 0.000000 -89.951546 -128.212341 382.234833
[Bip01_Head]
1 193.671722 110.574722 3.175678 -7.477617 -4.187703 -38.773312 223.037186
2 193.749039 111.190681 3.130188 -7.104886 -3.955083 -39.327152 223.409607
[eye_left_bone]
1 -24.626970 125.451866 -64.772606 0.000000 -90.000000 -99.840431 143.318359
2 -24.626970 125.451866 -64.772606 0.000000 -90.000000 -99.840431 143.318359
[eye_right_bone]
1 -24.626970 125.451866 64.327362 0.000000 -89.960434 80.159386 143.117676
2 -24.626970 125.451866 64.327362 0.000000 -89.960434 80.159386 143.117676
[L_forearm]
1 322.776093 0.000000 -0.000119 0.000161 -0.002342 -97.889999 322.776093
2 322.776093 0.000000 -0.000119 0.000170 -0.002341 -98.298660 322.776093
[L_front_hand]
1 241.149185 -0.042021 -3.300071 -178.667953 -1.835447 -27.422350 241.171753
2 241.149185 -0.042021 -3.300071 -178.667953 -1.835447 -27.422350 241.171753
[L_weapon_bone]
1 156.183838 0.000000 0.000000 0.000014 0.000007 0.000001 156.183838
2 156.183838 0.000000 0.000000 0.000014 0.000007 0.000001 156.183838
[L_front_hand01_01]
1 86.095154 20.947098 -0.655860 -0.366594 -0.477154 75.385582 88.609184
2 86.095154 20.947098 -0.655860 -0.366594 -0.477154 75.385574 88.609184
[L_front_hand02_01]
1 86.935165 -11.437475 24.513514 154.403519 -59.888931 -61.371990 91.046425
2 86.935165 -11.437475 24.513514 154.403519 -59.888931 -61.371990 91.046425
[L_front_hand03_01]
1 86.637497 -14.123976 -20.424902 -153.913879 58.118130 -62.702892 90.126129
2 86.637497 -14.123976 -20.424902 -153.913849 58.118122 -62.702866 90.126129
[L_front_hand01_02]
1 71.020905 -0.000179 0.000030 0.000334 -0.002323 -106.379684 71.020905
2 71.020905 -0.000179 0.000030 0.000334 -0.002323 -106.379684 71.020905
[L_front_hand02_02]
1 71.020927 -0.000119 0.000060 0.000334 -0.002323 -106.379684 71.020927
2 71.020927 -0.000119 0.000060 0.000334 -0.002323 -106.379684 71.020927
[L_front_hand03_02]
1 71.020905 -0.000060 0.000060 0.000334 -0.002323 -106.379684 71.020905
2 71.020905 -0.000060 0.000060 0.000334 -0.002323 -106.379684 71.020905
[R_forearm]
1 322.776428 -0.000060 0.000030 0.213295 0.003866 -91.459335 322.776428
2 322.776428 -0.000060 0.000030 0.213248 0.005926 -92.566147 322.776428
[R_front_hand]
1 238.847015 -0.006795 2.210259 -1.531696 0.790215 -51.443047 238.857239
2 238.847015 -0.006795 2.210259 -1.997102 0.660181 -49.162880 238.857239
[R_weapon_bone]
1 155.664093 0.002503 -0.000030 0.003487 0.001180 -90.988930 155.664078
2 155.664093 0.002503 -0.000030 0.003487 0.001180 -90.988930 155.664078
[R_front_hand01_01]
1 87.624611 14.231146 22.918642 -154.633286 -59.950581 61.745811 91.683487
2 87.624611 14.231146 22.918642 -122.121323 -31.679863 18.702246 91.683487
[R_front_hand02_01]
1 89.356956 14.367283 -19.491137 154.602463 58.302822 63.744175 92.579636
2 89.356956 14.367283 -19.491137 123.409882 30.457808 21.397026 92.579636
[R_front_hand03_01]
1 87.286232 -22.307278 -0.143439 0.162154 -0.423168 -75.767784 90.091743
2 87.286232 -22.307278 -0.143439 -0.147798 -0.427427 -35.767342 90.091743
[R_front_hand01_02]
1 71.020905 0.000060 0.000119 0.002323 -0.000334 106.381386 71.020905
2 71.020905 0.000060 0.000119 0.001777 0.001534 8.377220 71.020905
[R_front_hand02_02]
1 71.020844 -0.000030 -0.000119 0.002323 -0.000334 106.381386 71.020836
2 71.020844 -0.000030 -0.000119 0.001777 0.001534 8.377220 71.020836
[R_front_hand03_02]
1 71.020905 0.000000 0.000030 0.002323 -0.000334 106.381386 71.020905
2 71.020905 0.000000 0.000030 0.001777 0.001534 8.377220 71.020905
[null_rope01_connect]
1 328.732483 0.000000 -0.000238 -174.135101 -48.366947 173.866989 328.732483
2 328.732483 0.000000 -0.000238 -175.766739 -49.671284 -178.313324 328.732483
[Rope1_Seg01]
1 0.000000 0.000000 0.000000 132.184036 -26.028530 98.683525 0.000000
2 0.000000 0.000000 0.000000 153.155228 -40.409241 97.982521 0.000000
[Rope1_Seg02]
1 139.999863 -0.000179 0.000000 -13.532986 -5.396224 -11.490821 139.999863
2 139.999863 -0.000179 0.000000 -16.548939 -8.763000 -10.943948 139.999863
[Rope1_Seg03]
1 139.999924 0.000060 -0.000060 -11.003405 -2.494298 -17.682362 139.999924
2 139.999924 0.000060 -0.000060 -16.105228 -7.327956 -23.634647 139.999924
[Rope1_Seg04]
1 139.999924 -0.000060 -0.000119 -5.731668 2.307647 -18.955223 139.999924
2 139.999924 -0.000060 -0.000119 -7.379644 0.395452 -27.693590 139.999924
[Rope1_Seg05]
1 139.999832 0.000119 -0.000060 -3.299775 -6.405530 -19.212671 139.999832
2 139.999832 0.000119 -0.000060 -0.545358 -10.756608 -23.332554 139.999832
[Rope1_Seg06]
1 139.999954 0.000119 -0.000060 -0.228358 -7.203204 -17.876463 139.999954
2 139.999954 0.000119 -0.000060 1.655964 -8.084507 -15.938689 139.999954
[Rope1_Seg07]
1 139.999985 0.000060 0.000000 0.733644 -2.846092 -10.633828 139.999985
2 139.999985 0.000060 0.000000 1.177368 -3.222605 -8.103207 139.999985
[Rope1_Seg09]
1 121.602913 0.000119 -0.000089 -89.793175 -1.359789 0.847147 121.602913
2 121.602913 0.000119 -0.000089 -89.793175 -1.359789 0.847147 121.602913
[L_mid_hand01]
1 103.859421 1.038730 8.195221 114.520287 -53.310486 -20.623234 104.187431
2 103.859421 1.038730 8.195221 114.520233 -53.310619 -20.623131 104.187431
[L_mid_hand02]
1 105.572853 -4.139662 -10.864139 -155.067673 38.166626 -52.448826 106.211075
2 105.572853 -4.139662 -10.864139 -155.067673 38.166626 -52.448818 106.211075
[L_mid_hand03]
1 104.641464 17.579376 -3.913581 -10.970132 15.317463 57.626957 106.179977
2 104.641464 17.579376 -3.913581 -10.970130 15.317461 57.626949 106.179977
[null_rope02_connect]
1 328.732849 0.000179 -0.000119 -161.429794 45.155388 18.141478 328.732849
2 328.732849 0.000179 -0.000119 174.933945 36.395584 -0.450603 328.732849
[Rope2_Seg01]
1 0.000000 0.000072 0.000153 -50.400856 -23.793978 52.904449 0.000169
2 0.000003 0.000086 0.000151 -40.414040 -16.238407 24.508499 0.000173
[Rope2_Seg02]
1 139.999741 -0.000060 -0.000119 4.517014 3.068155 16.352919 139.999756
2 139.999741 -0.000060 -0.000119 -4.135046 -3.933608 41.168961 139.999756
[Rope2_Seg03]
1 140.000107 0.000030 0.000000 6.253103 4.505422 17.854548 140.000107
2 140.000107 0.000030 0.000000 3.135539 -5.109282 20.430634 140.000107
[Rope2_Seg04]
1 139.999802 0.000000 -0.000060 6.162387 4.698736 15.682859 139.999802
2 139.999802 0.000000 -0.000060 2.517447 -0.420669 7.254406 139.999802
[Rope2_Seg05]
1 139.999985 -0.000060 0.000119 3.132537 4.265317 7.475575 139.999985
2 139.999985 -0.000060 0.000119 3.111588 2.843385 6.491280 139.999985
[Rope2_Seg06]
1 139.999893 -0.000030 -0.000119 2.066747 5.709224 4.538471 139.999893
2 139.999893 -0.000030 -0.000119 7.062490 9.784081 13.279469 139.999893
[Rope2_Seg07]
1 139.999893 0.000060 -0.000060 2.136900 8.050097 5.648514 139.999893
2 139.999893 0.000060 -0.000060 7.299256 12.790745 16.608667 139.999893
[Rope2_Seg09]
1 121.338966 0.000089 -0.000060 56.676750 -0.921364 -1.309811 121.338966
2 121.338966 0.000089 -0.000060 61.981045 -0.783409 -1.391714 121.338966
[R_mid_hand01]
1 104.680779 11.144459 -10.335981 -39.248650 29.171114 33.551918 105.778534
2 104.680779 11.144459 -10.335981 -39.248650 29.171114 33.551922 105.778534
[R_mid_hand02]
1 104.070427 2.443552 8.231699 71.586517 -38.253605 12.182658 104.424065
2 104.070427 2.443552 8.231699 71.586502 -38.253605 12.182658 104.424065
[R_mid_hand03]
1 106.028137 -11.221827 -5.996406 -168.987167 11.419018 -42.774643 106.788818
2 106.028137 -11.221827 -5.996406 -168.987167 11.419019 -42.774647 106.788818
[spine02]
1 129.756927 0.001550 0.000119 -0.245322 -4.052062 -4.355547 129.756927
2 129.756927 0.001550 0.000119 -0.249362 -4.468241 -4.355088 129.756927
[spine03]
1 78.556305 0.095978 -5.460477 0.347670 4.962092 -3.558000 78.745918
2 78.556404 0.095846 -5.459580 0.546185 4.920035 -1.153051 78.745949
[pelvis]
1 169.435242 0.051022 0.000000 -0.035813 -0.502304 1.777407 169.435257
2 169.435242 0.051022 0.000000 -0.038226 -0.504172 2.094024 169.435257
[null_rope03_connect]
1 -1.257226 -2.466202 137.391083 -153.436462 -85.051895 -137.669617 137.418976
2 -1.257226 -2.466202 137.391083 176.460236 -86.859329 -110.553261 137.418976
[null_rope04_connect]
1 -1.259640 -2.480268 -137.844437 -153.436462 -85.051895 -137.669617 137.872513
2 -1.259640 -2.480268 -137.844437 176.460236 -86.859329 -110.553261 137.872513
[Rope3_Seg01]
1 0.000076 -0.000038 0.000000 -137.044388 -32.539165 -69.792892 0.000085
2 0.000074 -0.000054 0.000000 -134.469620 -23.082434 -70.393593 0.000092
[Rope3_Seg02]
1 139.999924 -0.000119 0.000060 6.521239 -27.388334 11.429186 139.999924
2 139.999924 -0.000119 0.000060 3.010105 -20.591904 13.929475 139.999924
[Rope3_Seg03]
1 139.999924 -0.000119 0.000119 5.932002 -16.538113 4.680633 139.999924
2 139.999924 -0.000119 0.000119 3.007900 -15.104477 6.419057 139.999924
[Rope3_Seg04]
1 139.999924 0.000119 0.000000 3.180032 -6.397442 5.242075 139.999924
2 139.999924 0.000119 0.000000 1.754185 -6.465426 7.190081 139.999924
[Rope3_Seg05]
1 139.999924 -0.000238 0.000060 2.617940 -1.701555 13.640508 139.999924
2 139.999924 -0.000238 0.000060 0.921954 1.098919 13.340536 139.999924
[Rope3_Seg06]
1 139.999893 -0.000119 -0.000060 0.994629 0.775796 22.680025 139.999893
2 139.999893 -0.000119 -0.000060 0.201008 2.377650 11.959067 139.999893
[Rope3_Seg07]
1 139.999771 0.000060 -0.000119 -1.720405 -0.554670 14.681176 139.999771
2 139.999771 0.000060 -0.000119 -0.291410 0.344622 6.304804 139.999771
[Rope3_Seg08]
1 139.999985 -0.000060 0.000000 -1.866475 -0.624751 8.730870 139.999985
2 139.999985 -0.000060 0.000000 -0.140361 0.189520 3.889482 139.999985
[Rope3_Seg09]
1 90.185997 -0.000179 -0.000060 89.795311 -1.358474 -0.848592 90.185997
2 90.185997 -0.000179 -0.000060 89.523315 -1.360484 -0.845365 90.185997
[R_rear_hand01]
1 103.366196 -6.073594 -10.757982 -173.185593 23.762142 -62.885860 104.101845
2 103.366196 -6.073594 -10.757982 -161.952179 17.100084 -31.467245 104.101845
[R_rear_hand02]
1 100.509819 12.039542 -7.992327 -19.787790 34.018837 60.270813 101.543350
2 100.509819 12.039542 -7.992327 -33.868809 20.068441 30.096478 101.543350
[R_rear_hand03]
1 101.539970 5.215704 5.435467 77.783302 -62.070759 14.692156 101.819031
2 101.539970 5.215704 5.435467 83.265404 -32.311989 7.474987 101.819031
[Rope4_Seg01]
1 0.000095 0.000114 0.000000 50.431904 -10.660959 -135.820114 0.000149
2 0.000094 0.000078 0.000000 46.410610 -3.973402 -132.331619 0.000123
[Rope4_Seg02]
1 139.999985 0.000060 0.000119 -5.084404 18.121826 -1.982732 139.999985
2 139.999985 0.000060 0.000119 -4.299256 18.983528 -2.112441 139.999985
[Rope4_Seg03]
1 139.999924 0.000000 -0.000238 0.380372 5.192544 3.326500 139.999924
2 139.999924 0.000000 -0.000238 0.081085 6.211230 2.467866 139.999924
[Rope4_Seg04]
1 139.999985 0.000000 0.000119 -0.973828 6.367479 -2.217317 139.999985
2 139.999985 0.000000 0.000119 -0.432185 6.199591 -2.156596 139.999985
[Rope4_Seg05]
1 139.999802 -0.000060 -0.000119 -2.600912 15.979311 -11.320089 139.999802
2 139.999802 -0.000060 -0.000119 -0.529081 11.227274 -8.072792 139.999802
[Rope4_Seg06]
1 139.999924 0.000000 0.000060 0.288972 19.257648 -13.398917 139.999924
2 139.999924 0.000000 0.000060 0.891082 11.466415 -8.351754 139.999924
[Rope4_Seg07]
1 139.999802 0.000000 0.000000 2.952744 12.099752 -8.519730 139.999802
2 139.999802 0.000000 0.000000 1.696509 7.910777 -5.634748 139.999802
[Rope4_Seg08]
1 139.999924 0.000000 0.000119 1.175204 6.594957 -5.278080 139.999924
2 139.999924 0.000000 0.000119 0.058017 5.062648 -3.877711 139.999924
[Rope4_Seg09]
1 90.185791 0.000060 0.000060 -135.617828 2.228885 0.850567 90.185791
2 90.185791 0.000060 0.000060 -135.617828 2.228885 0.850567 90.185791
[L_rear_hand01]
1 101.696655 -8.392275 -7.654577 -19.915014 -33.950905 119.950104 102.329041
2 101.696655 -8.392275 -7.654577 -19.915020 -33.950905 119.950104 102.329041
[L_rear_hand02]
1 102.726799 -1.568258 5.773216 77.862221 61.878510 165.399200 102.900848
2 102.726799 -1.568258 5.773216 77.862221 61.878510 165.399200 102.900848
[L_rear_hand03]
1 104.552910 9.721220 -10.420293 -173.099197 -23.740316 -117.327896 105.519653
2 104.552910 9.721220 -10.420293 -173.099182 -23.740307 -117.327896 105.519653
